<?xml version="1.0" encoding="utf-8"?>
<!-- Generator: Adobe Illustrator 27.1.1, SVG Export Plug-In . SVG Version: 6.00 Build 0)  -->
<svg version="1.1" id="Layer_1" xmlns="http://www.w3.org/2000/svg" xmlns:xlink="http://www.w3.org/1999/xlink" x="0px" y="0px"
	 viewBox="0 0 21 21" style="enable-background:new 0 0 21 21;" xml:space="preserve">
<style type="text/css">
	.st0{fill-rule:evenodd;clip-rule:evenodd;fill:#000000;}
</style>
<path class="st0" d="M18.9,17c0,0.6-0.5,1-1.1,1h-3.1c-0.5,0-1-0.4-1-1c0,0,0,0,0,0v-3c0-0.5,0.4-1,1-1c0,0,0,0,0,0h3.1
	c0.6,0,1.1,0.5,1.1,1C18.9,14,18.9,17,18.9,17z M17.8,11h-3.1c-1.7,0-3.1,1.4-3.1,3v3c0,1.7,1.4,3,3.1,3h3.1c1.7,0,3.2-1.3,3.2-3v-3
	C21,12.4,19.5,11,17.8,11z M7.3,17c0,0.6-0.5,1-1.1,1H3.1c-0.5,0-1-0.4-1-1c0,0,0,0,0,0v-3c0-0.5,0.4-1,1-1c0,0,0,0,0,0h3.2
	c0.6,0,1.1,0.5,1.1,1C7.4,14,7.4,17,7.3,17z M6.3,11H3.1C1.4,11,0,12.4,0,14v3c0,1.7,1.4,3,3.1,3h3.2c1.7,0,3.2-1.3,3.2-3v-3
	C9.4,12.4,8,11,6.3,11z M18.9,6c0,0.6-0.5,1-1.1,1h-3.1c-0.5,0-1-0.4-1-1c0,0,0,0,0,0V3c0-0.5,0.4-1,1-1c0,0,0,0,0,0h3.1
	c0.6,0,1.1,0.5,1.1,1V6z M17.8,0h-3.1c-1.7,0-3.1,1.4-3.1,3v3c0,1.7,1.4,3,3.1,3h3.1C19.5,9,21,7.7,21,6V3C21,1.4,19.5,0,17.8,0z
	 M7.3,6c0,0.6-0.5,1-1.1,1H3.1c-0.5,0-1-0.4-1-1c0,0,0,0,0,0V3c0-0.5,0.4-1,1-1c0,0,0,0,0,0h3.2c0.6,0,1.1,0.5,1.1,1
	C7.4,3,7.4,6,7.3,6z M6.3,0H3.1C1.4,0,0,1.4,0,3v3c0,1.7,1.4,3,3.1,3h3.2C8,9,9.4,7.7,9.4,6V3C9.4,1.4,8,0,6.3,0z"/>
</svg>
